<svg width="30" height="40" viewBox="0 0 30 40" fill="none" xmlns="http://www.w3.org/2000/svg">
<path d="M5.81766 3.83004C5.84938 3.88754 5.89215 3.93824 5.94353 3.97925C5.99491 4.02026 6.05389 4.05078 6.1171 4.06904C6.18031 4.08731 6.24652 4.09298 6.31192 4.08573C6.37733 4.07847 6.44067 4.05844 6.49831 4.02676C10.3501 1.92057 14.6965 0.879172 19.0875 1.01038C19.2203 1.01444 19.3493 0.965708 19.4461 0.874913C19.5429 0.784117 19.5996 0.658691 19.6037 0.526228C19.6078 0.393765 19.5589 0.265116 19.4678 0.168581C19.3768 0.0720462 19.251 0.0155338 19.1181 0.0114759C14.5482 -0.125068 10.0247 0.958976 6.01605 3.15136C5.89962 3.21525 5.81335 3.32258 5.77616 3.44981C5.73897 3.57703 5.7539 3.71377 5.81766 3.83004Z" fill="white" fill-opacity="0.56"/>
<path d="M2.33546 8.93154C2.24646 9.02513 2.19714 9.14937 2.19776 9.27834C2.19838 9.40731 2.24891 9.53107 2.3388 9.6238C2.42869 9.71654 2.55102 9.77109 2.68026 9.7761C2.80951 9.7811 2.93571 9.73617 3.03254 9.65066C5.65036 7.1393 8.84889 5.31041 12.3448 4.32599C15.8408 3.34157 19.5262 3.23199 23.0748 4.00696C23.2046 4.03595 23.3406 4.01234 23.4529 3.94132C23.5653 3.8703 23.6447 3.7577 23.6738 3.62828C23.7029 3.49886 23.6792 3.36322 23.6079 3.25121C23.5367 3.13921 23.4238 3.06 23.294 3.03101C19.5833 2.21963 15.7292 2.33362 12.0733 3.36288C8.4174 4.39214 5.07261 6.30488 2.33546 8.93154Z" fill="white" fill-opacity="0.56"/>
<path d="M7.5364 18.2116C6.57852 19.6257 5.9094 21.2141 5.56725 22.8861C5.22511 24.5581 5.21664 26.2809 5.54234 27.9562C5.86804 29.6314 6.52152 31.2263 7.46546 32.6497C8.4094 34.0731 9.62531 35.2972 11.0437 36.2519C13.3565 37.8099 16.1951 38.3879 18.9353 37.859C21.6755 37.33 24.0926 35.7372 25.6551 33.4312C27.2176 31.1251 27.7973 28.2946 27.2668 25.5623C26.7362 22.83 25.1389 20.4198 22.8262 18.8618C17.4797 15.2553 10.316 19.1405 10.3171 25.4815C10.3171 28.253 11.777 30.7798 13.8452 32.1142C15.0567 32.9261 16.5417 33.2257 17.9744 32.9474C19.4072 32.6691 20.6708 31.8356 21.4881 30.6297C22.3055 29.4238 22.6098 27.9439 22.3345 26.5146C22.0591 25.0852 21.2265 23.8231 20.0192 23.005C19.6922 22.7845 19.3249 22.6305 18.9381 22.5516C18.5514 22.4727 18.1529 22.4705 17.7653 22.5452C16.9826 22.6961 16.292 23.1508 15.8455 23.8093C15.399 24.4679 15.2332 25.2763 15.3844 26.0568C15.5357 26.8373 15.9918 27.5259 16.6522 27.9711C16.7624 28.0451 16.8975 28.0725 17.028 28.0472C17.1584 28.0219 17.2734 27.946 17.3476 27.8361C17.4219 27.7263 17.4494 27.5915 17.424 27.4614C17.3986 27.3314 17.3224 27.2167 17.2123 27.1427C16.772 26.8457 16.4681 26.3865 16.3674 25.8661C16.2667 25.3458 16.3774 24.8068 16.6752 24.3678C16.973 23.9288 17.4335 23.6258 17.9554 23.5254C18.4773 23.4249 19.0178 23.5353 19.4581 23.8323C20.0708 24.2435 20.5726 24.7987 20.9191 25.4491C21.2657 26.0994 21.4464 26.8248 21.4452 27.5612C21.4452 31.1776 17.38 33.2847 14.4064 31.2858C13.1587 30.4478 12.2143 29.232 11.7125 27.8178C11.2107 26.4037 11.1781 24.8662 11.6196 23.4321C12.061 21.9981 12.9531 20.7436 14.1642 19.8538C15.3753 18.964 16.8412 18.4859 18.3456 18.4902C22.7988 18.4902 26.4563 22.8443 26.4563 27.57C26.4547 28.817 26.2068 30.0516 25.7268 31.2031C25.2467 32.3546 24.5439 33.4006 23.6584 34.2813C22.7729 35.1619 21.7222 35.8601 20.5661 36.3359C19.4101 36.8116 18.1714 37.0557 16.9207 37.0541C11.0547 37.0541 6.30445 31.558 6.30335 25.4694C6.30335 19.0542 11.4844 13.4946 18.2864 13.4924C22.2628 13.4924 26.3357 15.4367 29.0682 19.5766C29.1026 19.6347 29.1486 19.6852 29.2032 19.7251C29.2577 19.7649 29.3199 19.7934 29.3858 19.8087C29.4517 19.824 29.5201 19.8258 29.5867 19.814C29.6533 19.8022 29.7169 19.7771 29.7735 19.7401C29.8302 19.7032 29.8787 19.6551 29.9162 19.599C29.9537 19.5428 29.9794 19.4796 29.9917 19.4133C30.0041 19.3469 30.0028 19.2787 29.988 19.2129C29.9732 19.147 29.9451 19.0849 29.9056 19.0301C24.1897 10.3493 12.7119 10.5679 7.5364 18.2116Z" fill="white" fill-opacity="0.56"/>
<path d="M20.8564 21.7589C22.1037 22.5967 23.048 23.8122 23.5499 25.2259C24.0518 26.6396 24.0847 28.1767 23.6438 29.6105C23.2029 31.0442 22.3115 32.2988 21.1012 33.1889C19.8908 34.0791 18.4256 34.5578 16.9216 34.5545C10.8484 34.5534 6.19131 26.4474 10.4418 20.1698C11.1419 19.1366 12.0393 18.2511 13.0828 17.5638C14.1262 16.8766 15.2952 16.401 16.523 16.1643C17.7508 15.9277 19.0134 15.9345 20.2385 16.1845C21.4637 16.4345 22.6275 16.9227 23.6633 17.6212C25.2588 18.6941 26.5723 20.1335 27.4934 21.8182C28.4145 23.5029 28.9161 25.3837 28.9561 27.302C28.9575 27.3676 28.9718 27.4323 28.9982 27.4924C29.0247 27.5525 29.0627 27.6068 29.1102 27.6522C29.1577 27.6976 29.2137 27.7332 29.275 27.7571C29.3363 27.7809 29.4017 27.7925 29.4674 27.7911C29.5332 27.7897 29.5981 27.7755 29.6583 27.7491C29.7186 27.7228 29.773 27.6848 29.8186 27.6375C29.8641 27.5901 29.8999 27.5343 29.9238 27.4732C29.9477 27.4121 29.9593 27.3469 29.9579 27.2813C29.8165 20.7414 24.6443 14.9906 18.3399 14.9917C16.9574 14.99 15.5882 15.2599 14.3105 15.7861C13.0327 16.3122 11.8715 17.0843 10.8931 18.0581C9.91472 19.0319 9.13838 20.1885 8.60846 21.4616C8.07853 22.7348 7.80541 24.0996 7.80469 25.478C7.80469 30.749 11.9105 35.5545 16.9194 35.5534C19.0463 35.5545 21.0866 34.7135 22.5919 33.2153C24.0972 31.717 24.9442 29.684 24.9468 27.5632C24.9468 23.6715 21.9436 19.9873 18.3355 19.9884C17.1554 19.9893 16.0068 20.3674 15.0581 21.0673C14.1095 21.7671 13.4109 22.7517 13.0648 23.8767C12.7188 25.0016 12.7435 26.2075 13.1355 27.3173C13.5274 28.4272 14.2659 29.3825 15.2424 30.043C15.9046 30.4864 16.7159 30.6503 17.4989 30.4987C18.2819 30.3472 18.9729 29.8925 19.4206 29.2343C20.3094 27.9665 20.0475 26.0419 18.6095 25.0715C18.4993 24.9972 18.3641 24.9697 18.2336 24.9949C18.103 25.0201 17.9879 25.096 17.9135 25.2059C17.8391 25.3157 17.8115 25.4506 17.8368 25.5807C17.862 25.7109 17.9381 25.8257 18.0483 25.8999C19.6694 26.9928 18.9153 29.5523 16.9216 29.5556C16.5229 29.5551 16.1334 29.4364 15.8025 29.2146C15.191 28.8018 14.6906 28.2456 14.345 27.5948C13.9995 26.9441 13.8195 26.2187 13.8209 25.4824C13.8242 21.866 17.8916 19.7611 20.8564 21.7589Z" fill="white" fill-opacity="0.56"/>
<path d="M18.3313 9.99268C9.68684 9.99268 2.79492 17.0123 2.79492 25.4735C2.79492 32.4221 7.45859 38.2724 13.1043 39.9784C13.2315 40.0168 13.3687 40.0032 13.4859 39.9407C13.6031 39.8782 13.6905 39.7718 13.729 39.645C13.7676 39.5182 13.754 39.3814 13.6913 39.2645C13.6286 39.1477 13.5219 39.0605 13.3948 39.0221C8.16225 37.4407 3.7989 31.9817 3.7978 25.4702C3.7978 17.5784 10.2162 10.9894 18.3313 10.9894C21.7718 10.9894 25.2857 12.208 28.2516 14.8528C28.3517 14.934 28.4794 14.9736 28.6081 14.9635C28.7367 14.9533 28.8565 14.8941 28.9426 14.7982C29.0286 14.7023 29.0743 14.577 29.0702 14.4483C29.066 14.3197 29.0123 14.1976 28.9202 14.1074C25.7746 11.3031 22.0086 9.99158 18.3313 9.99268Z" fill="white" fill-opacity="0.56"/>
<path d="M0.26729 16.7851C0.325645 16.8155 0.389439 16.8342 0.455023 16.84C0.520607 16.8458 0.586695 16.8386 0.649504 16.8189C0.712314 16.7992 0.770614 16.7674 0.821069 16.7252C0.871524 16.683 0.913145 16.6313 0.943549 16.5731C5.73545 7.4114 16.3769 3.80376 25.416 7.32178C25.5398 7.36989 25.6778 7.36699 25.7995 7.3137C25.9211 7.26041 26.0166 7.1611 26.0649 7.03763C26.1131 6.91415 26.1102 6.77662 26.0568 6.65528C26.0033 6.53395 25.9037 6.43875 25.7799 6.39063C16.2334 2.6748 5.06467 6.52834 0.0546579 16.1174C-0.00515025 16.2342 -0.0163684 16.3698 0.023436 16.4948C0.0632404 16.6198 0.150859 16.7241 0.26729 16.7851Z" fill="white" fill-opacity="0.56"/>
<path d="M3.01852 33.1828C3.02728 33.1315 3.03496 33.1446 3.03496 33.0932V33.0823C3.02465 33.0166 3.01 32.9516 2.99111 32.8878V32.8768C1.39945 29.5879 0.912804 25.8752 1.60329 22.2889C2.29377 18.7026 4.12464 15.4336 6.82457 12.9662C9.5245 10.4988 12.9498 8.96449 16.5929 8.59052C20.236 8.21656 23.9029 9.0229 27.0504 10.89C27.1643 10.9519 27.2978 10.9674 27.4229 10.9332C27.548 10.8991 27.655 10.818 27.7215 10.7069C27.788 10.5958 27.8087 10.4634 27.7795 10.3374C27.7502 10.2114 27.6731 10.1016 27.5644 10.031C19.3693 5.15453 8.74205 7.50425 3.38131 15.4091C-0.00875658 20.4157 -0.843942 26.8845 2.0803 33.3042C2.12388 33.4006 2.1974 33.4804 2.28999 33.532C2.38259 33.5835 2.48936 33.604 2.59453 33.5904C2.69969 33.5768 2.79769 33.5299 2.87404 33.4565C2.95039 33.3831 3.00104 33.2871 3.01852 33.1828Z" fill="white" fill-opacity="0.56"/>
</svg>
