<svg width="68" height="32" viewBox="0 0 68 32" fill="none" xmlns="http://www.w3.org/2000/svg">
<rect x="0.5" y="0.5" width="67" height="31" stroke="white"/>
<path fill-rule="evenodd" clip-rule="evenodd" d="M29.1987 16.2099V14.3203H31.5V27.6115H29.1987V25.7539C28 27.2485 26.4242 27.9958 24.4709 27.9958C22.6065 27.9958 21.0195 27.3766 19.71 26.1382C18.4004 24.8999 17.75 23.1704 17.75 20.9499C17.75 18.772 18.3893 17.0746 19.6767 15.8576C20.9862 14.6192 22.5843 14 24.4709 14C26.4685 14 28.0444 14.7366 29.1987 16.2099ZM24.7373 16.0497C23.4721 16.0497 22.3956 16.4874 21.5078 17.3628C20.6421 18.2169 20.2094 19.4126 20.2094 20.9499C20.2094 22.4231 20.6089 23.6295 21.4079 24.5689C22.2292 25.487 23.3389 25.9461 24.7373 25.9461C26.1356 25.9461 27.2454 25.4657 28.0667 24.5049C28.9101 23.544 29.3318 22.3697 29.3318 20.9819C29.3318 19.4019 28.8657 18.1849 27.9335 17.3308C27.0013 16.4768 25.9358 16.0497 24.7373 16.0497ZM44.953 16.2141V14.3245H47.2503V27.6157H44.953V25.7581C43.7545 27.2527 42.1788 28 40.2253 28C38.3608 28 36.774 27.3808 35.4645 26.1424C34.155 24.9041 33.5 23.1746 33.5 20.954C33.5 18.7762 34.1437 17.0788 35.431 15.8618C36.7405 14.6234 38.3388 14.0042 40.2253 14.0042C42.223 14.0042 43.7987 14.7408 44.953 16.2141ZM40.4915 16.0539C39.2265 16.0539 38.15 16.4916 37.2622 17.367C36.3965 18.2211 35.9638 19.4168 35.9638 20.954C35.9638 22.4273 36.3633 23.6336 37.1623 24.5731C37.9835 25.4912 39.0933 25.9503 40.4915 25.9503C41.89 25.9503 42.9997 25.4699 43.821 24.5091C44.6645 23.5482 45.0863 22.3739 45.0863 20.9861C45.0863 19.4061 44.62 18.189 43.688 17.335C42.7557 16.4809 41.6903 16.0539 40.4915 16.0539ZM55.143 20.5057L49.25 27.6157H52.1797L56.5412 22.2031L60.8203 27.6157H64L58.106 20.5377L63.1668 14.3245H60.2368L56.608 18.8403L53.0455 14.3245H50.1157L55.143 20.5057Z" fill="white"/>
<path fill-rule="evenodd" clip-rule="evenodd" d="M18.5 28C14.875 23.9896 14.875 18.0104 18.5 14H4V28H18.5Z" fill="white"/>
<path d="M32.7766 11.0675C32.5825 11.0675 32.4156 10.9988 32.2759 10.8615C32.1362 10.7218 32.0664 10.5537 32.0664 10.3572C32.0664 10.1631 32.1362 9.9974 32.2759 9.86009C32.4156 9.72041 32.5825 9.65057 32.7766 9.65057C32.9708 9.65057 33.1377 9.72041 33.2773 9.86009C33.417 9.9974 33.4869 10.1631 33.4869 10.3572C33.4869 10.4875 33.4537 10.607 33.3874 10.7159C33.3235 10.8224 33.2383 10.9077 33.1317 10.9716C33.0252 11.0355 32.9068 11.0675 32.7766 11.0675ZM38.9964 6.87713L38.0341 7.04759C37.9938 6.92448 37.9299 6.80729 37.8423 6.69602C37.7571 6.58475 37.6411 6.49361 37.4943 6.42259C37.3475 6.35156 37.1641 6.31605 36.9439 6.31605C36.6432 6.31605 36.3923 6.38352 36.1911 6.51847C35.9898 6.65104 35.8892 6.82268 35.8892 7.03338C35.8892 7.21567 35.9567 7.36245 36.0916 7.47372C36.2266 7.58499 36.4444 7.67614 36.745 7.74716L37.6115 7.94602C38.1134 8.06203 38.4875 8.24077 38.7337 8.48224C38.9799 8.72372 39.103 9.03741 39.103 9.4233C39.103 9.75 39.0083 10.0412 38.8189 10.2969C38.6319 10.5502 38.3703 10.7491 38.0341 10.8935C37.7003 11.0379 37.3132 11.1101 36.8729 11.1101C36.2621 11.1101 35.7637 10.9799 35.3778 10.7195C34.992 10.4567 34.7552 10.0838 34.6676 9.60085L35.6939 9.4446C35.7578 9.71212 35.8892 9.91454 36.0881 10.0518C36.2869 10.1868 36.5462 10.2543 36.8658 10.2543C37.2138 10.2543 37.492 10.1821 37.7003 10.0376C37.9086 9.89086 38.0128 9.71212 38.0128 9.50142C38.0128 9.33097 37.9489 9.18774 37.821 9.07173C37.6955 8.95573 37.5026 8.86813 37.2422 8.80895L36.3189 8.60653C35.8099 8.49053 35.4335 8.30587 35.1896 8.05256C34.9482 7.79924 34.8274 7.47846 34.8274 7.0902C34.8274 6.76823 34.9174 6.48651 35.0973 6.24503C35.2772 6.00355 35.5258 5.81534 35.843 5.6804C36.1603 5.54309 36.5237 5.47443 36.9332 5.47443C37.5227 5.47443 37.9867 5.60227 38.3253 5.85795C38.6638 6.11127 38.8875 6.45099 38.9964 6.87713ZM42.8166 5.54545V6.39773H39.8372V5.54545H42.8166ZM40.6362 4.23864H41.698V9.39844C41.698 9.6044 41.7288 9.75947 41.7903 9.86364C41.8519 9.96544 41.9312 10.0353 42.0282 10.0732C42.1277 10.1087 42.2354 10.1264 42.3514 10.1264C42.4366 10.1264 42.5112 10.1205 42.5751 10.1087C42.639 10.0968 42.6887 10.0874 42.7243 10.0803L42.916 10.9574C42.8545 10.9811 42.7669 11.0047 42.6532 11.0284C42.5396 11.0545 42.3975 11.0687 42.2271 11.071C41.9477 11.0758 41.6873 11.026 41.4458 10.9219C41.2044 10.8177 41.0091 10.6567 40.8599 10.4389C40.7108 10.2211 40.6362 9.94768 40.6362 9.61861V4.23864ZM47.4464 8.73793V5.54545H48.5117V11H47.4677V10.0554H47.4109C47.2854 10.3466 47.0842 10.5893 46.8072 10.7834C46.5326 10.9751 46.1905 11.071 45.7809 11.071C45.4305 11.071 45.1204 10.9941 44.8505 10.8402C44.583 10.6839 44.3723 10.4531 44.2184 10.1477C44.0669 9.84233 43.9911 9.46473 43.9911 9.01491V5.54545H45.0529V8.88707C45.0529 9.25876 45.1559 9.55469 45.3619 9.77486C45.5678 9.99503 45.8353 10.1051 46.1644 10.1051C46.3633 10.1051 46.561 10.0554 46.7575 9.95597C46.9563 9.85653 47.1209 9.7062 47.2511 9.50497C47.3836 9.30374 47.4487 9.04806 47.4464 8.73793ZM51.9803 11.1065C51.54 11.1065 51.147 10.9941 50.8013 10.7692C50.458 10.5419 50.1882 10.2187 49.9917 9.79972C49.7975 9.37831 49.7005 8.87287 49.7005 8.28338C49.7005 7.69389 49.7987 7.18963 49.9952 6.7706C50.1941 6.35156 50.4663 6.03078 50.812 5.80824C51.1576 5.5857 51.5494 5.47443 51.9874 5.47443C52.3259 5.47443 52.5982 5.53125 52.8042 5.64489C53.0125 5.75616 53.1735 5.88636 53.2871 6.03551C53.4031 6.18466 53.4931 6.31605 53.557 6.42969H53.6209V3.72727H54.6827V11H53.6458V10.1513H53.557C53.4931 10.2673 53.4007 10.3999 53.28 10.549C53.1616 10.6982 52.9983 10.8284 52.79 10.9396C52.5816 11.0509 52.3117 11.1065 51.9803 11.1065ZM52.2147 10.201C52.5201 10.201 52.7781 10.1205 52.9888 9.95952C53.2019 9.79616 53.3629 9.57008 53.4718 9.28125C53.583 8.99242 53.6387 8.65625 53.6387 8.27273C53.6387 7.89394 53.5842 7.5625 53.4753 7.27841C53.3664 6.99432 53.2066 6.77296 52.9959 6.61435C52.7852 6.45573 52.5248 6.37642 52.2147 6.37642C51.8951 6.37642 51.6287 6.45928 51.4157 6.625C51.2026 6.79072 51.0416 7.01681 50.9327 7.30327C50.8262 7.58973 50.7729 7.91288 50.7729 8.27273C50.7729 8.63731 50.8274 8.9652 50.9363 9.25639C51.0452 9.54759 51.2061 9.77841 51.4192 9.94886C51.6346 10.117 51.8998 10.201 52.2147 10.201ZM56.1982 11V5.54545H57.2599V11H56.1982ZM56.7344 4.70384C56.5497 4.70384 56.3911 4.64228 56.2585 4.51918C56.1283 4.3937 56.0632 4.24455 56.0632 4.07173C56.0632 3.89654 56.1283 3.7474 56.2585 3.62429C56.3911 3.49882 56.5497 3.43608 56.7344 3.43608C56.919 3.43608 57.0765 3.49882 57.2067 3.62429C57.3393 3.7474 57.4055 3.89654 57.4055 4.07173C57.4055 4.24455 57.3393 4.3937 57.2067 4.51918C57.0765 4.64228 56.919 4.70384 56.7344 4.70384ZM60.986 11.1101C60.4746 11.1101 60.0283 10.9929 59.6472 10.7585C59.266 10.5241 58.9701 10.1963 58.7594 9.77486C58.5487 9.35346 58.4434 8.86103 58.4434 8.29759C58.4434 7.73177 58.5487 7.23698 58.7594 6.81321C58.9701 6.38944 59.266 6.06037 59.6472 5.82599C60.0283 5.59162 60.4746 5.47443 60.986 5.47443C61.4973 5.47443 61.9436 5.59162 62.3248 5.82599C62.7059 6.06037 63.0018 6.38944 63.2125 6.81321C63.4232 7.23698 63.5286 7.73177 63.5286 8.29759C63.5286 8.86103 63.4232 9.35346 63.2125 9.77486C63.0018 10.1963 62.7059 10.5241 62.3248 10.7585C61.9436 10.9929 61.4973 11.1101 60.986 11.1101ZM60.9895 10.2188C61.321 10.2188 61.5956 10.1312 61.8134 9.95597C62.0312 9.78078 62.1922 9.54759 62.2963 9.25639C62.4029 8.9652 62.4561 8.64441 62.4561 8.29403C62.4561 7.94602 62.4029 7.62642 62.2963 7.33523C62.1922 7.04167 62.0312 6.80611 61.8134 6.62855C61.5956 6.45099 61.321 6.36222 60.9895 6.36222C60.6557 6.36222 60.3787 6.45099 60.1586 6.62855C59.9408 6.80611 59.7786 7.04167 59.6721 7.33523C59.5679 7.62642 59.5158 7.94602 59.5158 8.29403C59.5158 8.64441 59.5679 8.9652 59.6721 9.25639C59.7786 9.54759 59.9408 9.78078 60.1586 9.95597C60.3787 10.1312 60.6557 10.2188 60.9895 10.2188Z" fill="white"/>
<path d="M4.84606 11V10.2045L7.307 7.65483C7.56978 7.37784 7.7864 7.13518 7.95685 6.92685C8.12968 6.71615 8.2587 6.5161 8.34393 6.3267C8.42916 6.13731 8.47177 5.93608 8.47177 5.72301C8.47177 5.48153 8.41495 5.2732 8.30131 5.09801C8.18768 4.92045 8.03261 4.78433 7.83612 4.68963C7.63962 4.59257 7.41826 4.54403 7.17205 4.54403C6.91164 4.54403 6.68436 4.5973 6.49023 4.70384C6.29611 4.81037 6.14696 4.9607 6.04279 5.15483C5.93862 5.34896 5.88654 5.57623 5.88654 5.83665H4.83896C4.83896 5.39394 4.94076 5.00687 5.14435 4.67543C5.34795 4.34399 5.62731 4.08712 5.98242 3.90483C6.33754 3.72017 6.74118 3.62784 7.19336 3.62784C7.65027 3.62784 8.05273 3.71899 8.40075 3.90128C8.75112 4.0812 9.02456 4.32741 9.22106 4.63991C9.41755 4.95005 9.5158 5.30043 9.5158 5.69105C9.5158 5.96094 9.4649 6.22491 9.3631 6.48295C9.26367 6.741 9.08967 7.02865 8.84109 7.34588C8.59251 7.66075 8.24686 8.04309 7.80415 8.4929L6.35884 10.0057V10.0589H9.63299V11H4.84606ZM13.5108 11.1207C12.9498 11.1184 12.4703 10.9704 12.0726 10.6768C11.6749 10.3833 11.3707 9.95597 11.16 9.39489C10.9493 8.83381 10.8439 8.15791 10.8439 7.36719C10.8439 6.57884 10.9493 5.9053 11.16 5.34659C11.373 4.78788 11.6784 4.36174 12.0762 4.06818C12.4763 3.77462 12.9545 3.62784 13.5108 3.62784C14.0672 3.62784 14.5442 3.7758 14.9419 4.07173C15.3397 4.36529 15.6439 4.79143 15.8546 5.35014C16.0676 5.90649 16.1742 6.57884 16.1742 7.36719C16.1742 8.16027 16.0688 8.83736 15.8581 9.39844C15.6474 9.95715 15.3432 10.3845 14.9455 10.6804C14.5478 10.974 14.0695 11.1207 13.5108 11.1207ZM13.5108 10.1726C14.0033 10.1726 14.388 9.93229 14.665 9.4517C14.9443 8.97112 15.084 8.27628 15.084 7.36719C15.084 6.76349 15.0201 6.25331 14.8922 5.83665C14.7667 5.41761 14.5856 5.10038 14.3489 4.88494C14.1145 4.66714 13.8352 4.55824 13.5108 4.55824C13.0208 4.55824 12.6361 4.79972 12.3567 5.28267C12.0774 5.76562 11.9365 6.46046 11.9341 7.36719C11.9341 7.97325 11.9969 8.4858 12.1223 8.90483C12.2502 9.3215 12.4313 9.63755 12.6657 9.85298C12.9 10.0661 13.1818 10.1726 13.5108 10.1726ZM17.4339 11V10.2045L19.8949 7.65483C20.1577 7.37784 20.3743 7.13518 20.5447 6.92685C20.7176 6.71615 20.8466 6.5161 20.9318 6.3267C21.017 6.13731 21.0597 5.93608 21.0597 5.72301C21.0597 5.48153 21.0028 5.2732 20.8892 5.09801C20.7756 4.92045 20.6205 4.78433 20.424 4.68963C20.2275 4.59257 20.0062 4.54403 19.7599 4.54403C19.4995 4.54403 19.2723 4.5973 19.0781 4.70384C18.884 4.81037 18.7348 4.9607 18.6307 5.15483C18.5265 5.34896 18.4744 5.57623 18.4744 5.83665H17.4268C17.4268 5.39394 17.5286 5.00687 17.7322 4.67543C17.9358 4.34399 18.2152 4.08712 18.5703 3.90483C18.9254 3.72017 19.3291 3.62784 19.7812 3.62784C20.2382 3.62784 20.6406 3.71899 20.9886 3.90128C21.339 4.0812 21.6125 4.32741 21.8089 4.63991C22.0054 4.95005 22.1037 5.30043 22.1037 5.69105C22.1037 5.96094 22.0528 6.22491 21.951 6.48295C21.8516 6.741 21.6776 7.02865 21.429 7.34588C21.1804 7.66075 20.8348 8.04309 20.392 8.4929L18.9467 10.0057V10.0589H22.2209V11H17.4339ZM23.5668 11V10.2045L26.0277 7.65483C26.2905 7.37784 26.5071 7.13518 26.6776 6.92685C26.8504 6.71615 26.9794 6.5161 27.0646 6.3267C27.1499 6.13731 27.1925 5.93608 27.1925 5.72301C27.1925 5.48153 27.1357 5.2732 27.022 5.09801C26.9084 4.92045 26.7533 4.78433 26.5568 4.68963C26.3603 4.59257 26.139 4.54403 25.8928 4.54403C25.6323 4.54403 25.4051 4.5973 25.2109 4.70384C25.0168 4.81037 24.8677 4.9607 24.7635 5.15483C24.6593 5.34896 24.6072 5.57623 24.6072 5.83665H23.5597C23.5597 5.39394 23.6615 5.00687 23.8651 4.67543C24.0687 4.34399 24.348 4.08712 24.7031 3.90483C25.0582 3.72017 25.4619 3.62784 25.9141 3.62784C26.371 3.62784 26.7734 3.71899 27.1214 3.90128C27.4718 4.0812 27.7453 4.32741 27.9418 4.63991C28.1383 4.95005 28.2365 5.30043 28.2365 5.69105C28.2365 5.96094 28.1856 6.22491 28.0838 6.48295C27.9844 6.741 27.8104 7.02865 27.5618 7.34588C27.3132 7.66075 26.9676 8.04309 26.5249 8.4929L25.0795 10.0057V10.0589H28.3537V11H23.5668Z" fill="white"/>
</svg>
