<svg width="14" height="308" viewBox="0 0 14 308" fill="none" xmlns="http://www.w3.org/2000/svg">
<path d="M14 58L7.75 54.3916V61.6084L14 58ZM0.375 10.566V48.434H1.625V10.566H0.375ZM10.566 1.625H14V0.375H10.566V1.625ZM0.375 48.434C0.375 54.0623 4.93768 58.625 10.566 58.625V57.375C5.62804 57.375 1.625 53.372 1.625 48.434H0.375ZM10.566 0.375C4.93768 0.375 0.375 4.93768 0.375 10.566H1.625C1.625 5.62804 5.62804 1.625 10.566 1.625V0.375Z" fill="black"/>
<path d="M14 133L7.75 129.392V136.608L14 133ZM0.375 67.566V123.434H1.625V67.566H0.375ZM0.375 123.434C0.375 129.062 4.93768 133.625 10.566 133.625V132.375C5.62804 132.375 1.625 128.372 1.625 123.434H0.375ZM10.566 57.375C4.93768 57.375 0.375 61.9377 0.375 67.566H1.625C1.625 62.628 5.62804 58.625 10.566 58.625V57.375Z" fill="black"/>
<path d="M14 247L7.75 243.392V250.608L14 247ZM0.375 208.566V237.434H1.625V208.566H0.375ZM0.375 237.434C0.375 243.062 4.93768 247.625 10.566 247.625V246.375C5.62804 246.375 1.625 242.372 1.625 237.434H0.375ZM10.566 198.375C4.93768 198.375 0.375 202.938 0.375 208.566H1.625C1.625 203.628 5.62804 199.625 10.566 199.625V198.375Z" fill="black"/>
<path d="M14 304L7.75 300.392V307.608L14 304ZM0.375 256.566V294.434H1.625V256.566H0.375ZM0.375 294.434C0.375 300.062 4.93768 304.625 10.566 304.625V303.375C5.62804 303.375 1.625 299.372 1.625 294.434H0.375ZM10.566 246.375C4.93768 246.375 0.375 250.938 0.375 256.566H1.625C1.625 251.628 5.62804 247.625 10.566 247.625V246.375Z" fill="black"/>
<path d="M14 199L7.75 195.392V202.608L14 199ZM0.375 142.566V189.434H1.625V142.566H0.375ZM0.375 189.434C0.375 195.062 4.93768 199.625 10.566 199.625V198.375C5.62804 198.375 1.625 194.372 1.625 189.434H0.375ZM10.566 132.375C4.93768 132.375 0.375 136.938 0.375 142.566H1.625C1.625 137.628 5.62804 133.625 10.566 133.625V132.375Z" fill="black"/>
</svg>
