<svg width="55" height="457" viewBox="0 0 55 457" fill="none" xmlns="http://www.w3.org/2000/svg">
<path d="M55 75L35 63.453V86.547L55 75ZM41 0H38.5V4H41V0ZM38.5 77H41V73H38.5V77ZM41 4H55V0H41V4ZM0 38.5C0 59.763 17.237 77 38.5 77V73C19.4462 73 4 57.5538 4 38.5H0ZM38.5 0C17.237 0 0 17.237 0 38.5H4C4 19.4462 19.4462 4 38.5 4V0Z" fill="black"/>
<path d="M55 179L35 167.453V190.547L55 179ZM0 114V140H4V114H0ZM0 140C0 162.644 18.3563 181 41 181V177C20.5655 177 4 160.435 4 140H0ZM41 73C18.3563 73 0 91.3563 0 114H4C4 93.5655 20.5655 77 41 77V73Z" fill="black"/>
<path d="M55 347L35 335.453V358.547L55 347ZM0 301V308H4V301H0ZM0 308C0 330.644 18.3563 349 41 349V345C20.5655 345 4 328.435 4 308H0ZM41 260C18.3563 260 0 278.356 0 301H4C4 280.565 20.5655 264 41 264V260Z" fill="black"/>
<path d="M55 445L35 433.453V456.547L55 445ZM0 386V406H4V386H0ZM0 406C0 428.644 18.3563 447 41 447V443C20.5655 443 4 426.435 4 406H0ZM41 345C18.3563 345 0 363.356 0 386H4C4 365.565 20.5655 349 41 349V345Z" fill="black"/>
<path d="M55 262L35 250.453V273.547L55 262ZM0 218V223H4V218H0ZM0 223C0 245.644 18.3563 264 41 264V260C20.5655 260 4 243.435 4 223H0ZM41 177C18.3563 177 0 195.356 0 218H4C4 197.565 20.5655 181 41 181V177Z" fill="black"/>
</svg>
