<svg width="1280" height="720" viewBox="0 0 1280 720" fill="none" xmlns="http://www.w3.org/2000/svg">
<mask id="mask0_340_5" style="mask-type:alpha" maskUnits="userSpaceOnUse" x="0" y="0" width="1280" height="720">
<rect width="1280" height="720" transform="matrix(1 0 0 -1 0 720)" fill="black"/>
</mask>
<g mask="url(#mask0_340_5)">
<path d="M23.4279 181.777C20.3922 187.843 19.0492 194.295 19.6788 199.788C20.3084 205.281 22.8621 209.391 26.8074 211.261C30.7527 213.131 35.7851 212.617 40.8553 209.825C45.9256 207.034 50.6423 202.181 54.0221 196.278C144.454 28.1683 260.764 -124.299 392.65 -247.621C524.536 -370.942 667.929 -461.31 810.127 -510.722C815.331 -512.502 820.532 -516.673 824.585 -522.318C828.638 -527.962 831.211 -534.618 831.739 -540.82C832.266 -547.023 830.705 -552.264 827.398 -555.392C824.092 -558.519 819.31 -559.276 814.106 -557.496C665.407 -505.869 515.45 -411.391 377.528 -282.436C239.605 -153.48 117.978 5.96848 23.4279 181.777Z" fill="#1C1C1E"/>
<path d="M326.756 843.777C293.069 943.228 272.512 1043.69 266.258 1139.44C260.004 1235.18 268.176 1324.32 290.308 1401.77C312.439 1479.23 348.096 1543.47 395.242 1590.84C442.388 1638.21 500.1 1667.77 565.081 1677.84C671.038 1694.32 794.483 1645.7 908.262 1542.67C1022.04 1439.64 1116.83 1290.64 1171.78 1128.45C1226.73 966.255 1237.34 804.159 1201.28 677.818C1165.21 551.477 1085.42 471.24 979.467 454.758C734.494 416.403 449.429 814.896 480.876 1142.1C494.602 1285.13 569.13 1375.18 663.594 1386.88C719.078 1395.29 783.641 1369.72 843.124 1315.76C902.607 1261.8 952.155 1183.86 980.902 1099.04C1009.65 1014.22 1015.25 929.433 996.475 863.28C977.7 797.127 936.082 755.004 880.748 746.15C865.765 743.811 849.397 746.014 832.578 752.631C815.76 759.249 798.82 770.152 782.727 784.718C750.225 814.136 723.142 856.688 707.437 903.013C691.731 949.339 688.69 995.643 698.981 1031.74C709.272 1067.84 732.053 1090.77 762.313 1095.49C767.36 1096.27 773.237 1093.94 778.652 1089.03C784.066 1084.12 788.575 1077.03 791.186 1069.3C793.797 1061.58 794.296 1053.87 792.574 1047.86C790.851 1041.85 787.049 1038.04 782.002 1037.26C761.83 1034.1 746.647 1018.81 739.791 994.734C732.936 970.662 734.97 939.788 745.447 908.903C755.924 878.017 773.984 849.651 795.656 830.045C817.328 810.438 840.835 801.197 861.007 804.354C889.071 808.64 913.135 823.427 931.077 847.41C949.019 871.393 960.286 903.835 963.883 941.872C981.792 1128.5 819.542 1349.59 683.33 1328.62C626.179 1319.86 580.04 1283.21 551.721 1224.1C523.403 1164.99 514.405 1086.55 526.056 1000.34C537.708 914.139 569.391 824.742 616.43 745.349C663.469 665.956 723.371 600.771 787.296 559.417C976.462 436.339 1153.39 559.953 1176.79 803.827C1182.9 868.227 1178.48 938.788 1163.79 1011.48C1149.1 1084.18 1124.43 1157.58 1091.18 1227.5C1057.92 1297.42 1016.75 1362.49 969.995 1418.99C923.244 1475.5 871.834 1522.33 818.7 1556.81C569.519 1718.94 340.517 1566.59 310.32 1252.41C278.551 921.34 471.101 491.241 760.032 303.134C928.946 193.234 1111.59 181.004 1248.16 319.129C1249.91 321.174 1252.11 322.512 1254.63 323.061C1257.14 323.611 1259.92 323.362 1262.8 322.329C1265.67 321.296 1268.59 319.5 1271.36 317.05C1274.13 314.6 1276.71 311.547 1278.93 308.075C1281.15 304.602 1282.98 300.783 1284.29 296.847C1285.6 292.912 1286.38 288.942 1286.58 285.176C1286.77 281.411 1286.38 277.929 1285.43 274.94C1284.47 271.951 1282.97 269.517 1281.02 267.786C995.23 -22.227 508.753 306.273 326.756 843.777Z" fill="#1C1C1E"/>
<path d="M902.925 675.79C959.405 684.402 1005.01 720.458 1033.01 778.637C1061.01 836.817 1069.93 914.04 1058.44 998.914C1046.95 1083.79 1015.67 1171.82 969.212 1250.02C922.753 1328.22 863.576 1392.46 800.41 1433.24C545.403 1598.57 310.141 1313.43 457.849 878.642C482.184 807.067 515.526 737.624 555.971 674.28C596.415 610.936 643.17 554.932 693.563 509.468C743.957 464.004 797.002 429.97 849.668 409.311C902.335 388.652 953.591 381.772 1000.51 389.064C1072.75 400.143 1134.96 437.526 1181.89 498.064C1228.82 558.602 1259.1 640.523 1270.18 736.93C1270.56 740.226 1271.48 743.124 1272.88 745.457C1274.29 747.79 1276.15 749.514 1278.36 750.529C1280.58 751.544 1283.11 751.831 1285.8 751.373C1288.49 750.916 1291.29 749.722 1294.05 747.862C1296.8 746.001 1299.45 743.51 1301.85 740.529C1304.26 737.549 1306.36 734.138 1308.04 730.492C1309.72 726.846 1310.94 723.035 1311.65 719.278C1312.35 715.521 1312.52 711.89 1312.14 708.594C1274.16 380.075 1028.81 228.658 764.102 400.397C706.048 437.956 649.88 488.96 598.808 550.496C547.736 612.032 502.761 682.893 466.452 759.029C430.144 835.165 403.214 915.084 387.202 994.219C371.19 1073.35 366.409 1150.15 373.134 1220.23C398.962 1488.11 594.903 1620.53 805.212 1484.07C894.522 1426.21 976.071 1327.9 1031.93 1210.77C1087.79 1093.63 1113.4 967.241 1103.12 859.388C1084.05 661.599 939.897 556.146 788.402 654.459C738.859 686.641 692.481 737.138 656.079 798.538C619.677 859.938 595.168 929.006 586.15 995.6C577.132 1062.19 584.081 1122.81 605.976 1168.54C627.871 1214.27 663.558 1242.71 707.799 1249.69C737.775 1254.19 772.644 1240.42 804.779 1211.4C836.913 1182.37 863.696 1140.45 879.268 1094.8C910.378 1006.17 889.949 915.491 824.814 905.328C819.825 904.558 814.012 906.841 808.655 911.677C803.298 916.512 798.836 923.504 796.25 931.113C793.663 938.723 793.165 946.327 794.864 952.253C796.564 958.179 800.321 961.941 805.311 962.712C878.731 974.111 859.61 1124.73 775.915 1179.19C759.173 1190.02 742.235 1194.59 727.257 1192.33C699.559 1188 675.819 1173.37 658.123 1149.7C640.426 1126.04 629.314 1094.08 625.763 1056.62C608.181 872.735 768.649 654.995 902.925 675.79Z" fill="#1C1C1E"/>
<path d="M752.556 88.2897C381.189 330.315 120.251 890.336 162.605 1332.78C197.388 1696.13 427.024 1871.47 678.104 1802.61C683.76 1801.06 689.589 1796.51 694.31 1789.96C699.03 1783.41 702.255 1775.4 703.275 1767.69C704.295 1759.98 703.026 1753.21 699.748 1748.85C696.47 1744.5 691.451 1742.93 685.795 1744.48C453.09 1808.28 238.315 1644.99 205.673 1304.53C166.168 891.86 408.921 367.612 757.546 140.409C905.348 44.084 1062.41 9.4234 1203.06 64.6847C1207.77 66.129 1213.45 64.6282 1218.93 60.4944C1224.4 56.3604 1229.25 49.911 1232.47 42.4855C1235.69 35.0601 1237.02 27.2293 1236.2 20.6195C1235.38 14.0097 1232.46 9.12885 1228.05 6.99065C1078.88 -51.5817 910.524 -14.7208 752.556 88.2897Z" fill="#1C1C1E"/>
<path d="M-2.85231 688.306C-0.395214 688.254 2.22208 687.537 4.84985 686.198C7.47763 684.859 10.0643 682.923 12.462 680.502C14.8596 678.081 17.0212 675.221 18.823 672.087C20.6248 668.952 22.0316 665.605 22.9627 662.236C169.792 131.962 574.734 -290.519 949.717 -352.426C954.854 -353.278 960.309 -356.776 964.883 -362.15C969.457 -367.524 972.774 -374.334 974.106 -381.082C975.437 -387.83 974.674 -393.964 971.983 -398.133C969.292 -402.303 964.895 -404.167 959.758 -403.315C563.72 -337.946 139.034 108.496 -14.43 663.371C-16.251 670.101 -16.0568 676.492 -13.8895 681.16C-11.7221 685.828 -7.75642 688.396 -2.85231 688.306Z" fill="#1C1C1E"/>
<path d="M207.748 1639.87C207.865 1637.01 208.252 1637.47 208 1634.85L207.946 1634.3C207.19 1631.23 206.254 1628.31 205.146 1625.57L205.092 1625.02C121.956 1500.81 83.245 1324.8 94.6951 1123.09C106.145 921.374 167.147 704.682 268.661 505.127C370.175 305.572 506.799 133.773 658.285 15.1897C809.772 -103.394 968.059 -162.451 1109.69 -153.23C1114.79 -153.188 1120.48 -156.046 1125.58 -161.204C1130.68 -166.363 1134.78 -173.421 1137.04 -180.9C1139.29 -188.379 1139.51 -195.697 1137.66 -201.322C1135.81 -206.946 1132.03 -210.44 1127.11 -211.07C758.262 -235.842 322.541 174.263 135.744 723.743C17.6525 1071.61 14.2663 1424.25 168.858 1671.68C171.165 1675.41 174.652 1677.47 178.802 1677.57C182.952 1677.67 187.546 1675.8 191.905 1672.23C196.265 1668.67 200.158 1663.6 203.011 1657.77C205.864 1651.94 207.525 1645.67 207.748 1639.87Z" fill="#1C1C1E"/>
</g>
</svg>
