<svg width="30" height="40" viewBox="0 0 30 40" fill="none" xmlns="http://www.w3.org/2000/svg">
<path d="M5.80089 3.83004C5.83251 3.88754 5.87516 3.93824 5.92639 3.97925C5.97762 4.02026 6.03643 4.05078 6.09946 4.06904C6.16249 4.08731 6.2285 4.09298 6.29372 4.08573C6.35895 4.07847 6.4221 4.05844 6.47957 4.02676C10.3203 1.92057 14.6542 0.879172 19.0325 1.01038C19.165 1.01444 19.2936 0.965708 19.3902 0.874913C19.4867 0.784117 19.5432 0.658691 19.5473 0.526228C19.5513 0.393765 19.5026 0.265116 19.4118 0.168581C19.321 0.0720462 19.1956 0.0155338 19.0631 0.0114759C14.5063 -0.125068 9.9958 0.958976 5.9987 3.15136C5.8826 3.21525 5.79658 3.32258 5.7595 3.44981C5.72242 3.57703 5.7373 3.71377 5.80089 3.83004Z" fill="white"/>
<path d="M2.32871 8.93164C2.23998 9.02523 2.19079 9.14947 2.19141 9.27844C2.19203 9.40741 2.24241 9.53117 2.33205 9.6239C2.42168 9.71664 2.54365 9.77119 2.67253 9.7762C2.8014 9.7812 2.92724 9.73627 3.02379 9.65076C5.63408 7.1394 8.82342 5.31051 12.3093 4.32609C15.7952 3.34167 19.4701 3.23209 23.0084 4.00706C23.1378 4.03605 23.2735 4.01244 23.3855 3.94142C23.4975 3.8704 23.5767 3.7578 23.6057 3.62838C23.6347 3.49896 23.6111 3.36332 23.54 3.25131C23.469 3.13931 23.3564 3.0601 23.227 3.03111C19.527 2.21973 15.684 2.33372 12.0386 3.36298C8.39317 4.39224 5.058 6.30498 2.32871 8.93164Z" fill="white"/>
<path d="M7.5146 18.2114C6.55947 19.6255 5.89228 21.2139 5.55112 22.8859C5.20995 24.5579 5.20151 26.2808 5.52628 27.956C5.85104 29.6313 6.50264 31.2262 7.44387 32.6496C8.38509 34.073 9.59751 35.297 11.0119 36.2518C13.3179 37.8098 16.1484 38.3878 18.8807 37.8588C21.613 37.3298 24.0232 35.7371 25.5812 33.431C27.1392 31.125 27.7172 28.2945 27.1882 25.5622C26.6592 22.8299 25.0665 20.4197 22.7605 18.8617C17.4293 15.2551 10.2862 19.1404 10.2873 25.4813C10.2873 28.2529 11.743 30.7797 13.8053 32.1141C15.0133 32.9259 16.494 33.2256 17.9226 32.9473C19.3513 32.669 20.6112 31.8355 21.4262 30.6296C22.2412 29.4237 22.5447 27.9438 22.2701 26.5144C21.9955 25.0851 21.1653 23.823 19.9616 23.0048C19.6355 22.7844 19.2692 22.6303 18.8836 22.5515C18.4979 22.4726 18.1006 22.4704 17.7141 22.5451C16.9336 22.696 16.245 23.1507 15.7998 23.8092C15.3546 24.4678 15.1892 25.2762 15.3401 26.0567C15.4909 26.8371 15.9456 27.5257 16.6042 27.971C16.714 28.045 16.8488 28.0724 16.9789 28.0471C17.1089 28.0218 17.2236 27.9458 17.2976 27.836C17.3717 27.7261 17.3991 27.5913 17.3738 27.4613C17.3484 27.3313 17.2725 27.2166 17.1627 27.1425C16.7237 26.8456 16.4206 26.3864 16.3202 25.866C16.2198 25.3456 16.3302 24.8067 16.6271 24.3677C16.9241 23.9287 17.3833 23.6257 17.9037 23.5252C18.424 23.4248 18.963 23.5352 19.402 23.8322C20.013 24.2434 20.5133 24.7986 20.8589 25.4489C21.2044 26.0993 21.3846 26.8247 21.3834 27.5611C21.3834 31.1775 17.3299 33.2846 14.3649 31.2857C13.1207 30.4476 12.179 29.2318 11.6787 27.8177C11.1783 26.4036 11.1458 24.866 11.586 23.432C12.0262 21.998 12.9158 20.7435 14.1234 19.8537C15.331 18.9638 16.7927 18.4858 18.2927 18.4901C22.7331 18.4901 26.3801 22.8442 26.3801 27.5699C26.3785 28.8169 26.1313 30.0514 25.6527 31.203C25.174 32.3545 24.4732 33.4004 23.5903 34.2811C22.7073 35.1618 21.6596 35.86 20.5069 36.3357C19.3542 36.8115 18.119 37.0556 16.8719 37.054C11.0228 37.054 6.28619 31.5578 6.2851 25.4693C6.2851 19.054 11.4512 13.4945 18.2337 13.4923C22.1987 13.4923 26.2599 15.4366 28.9845 19.5764C29.0188 19.6345 29.0646 19.685 29.1191 19.7249C29.1735 19.7648 29.2354 19.7933 29.3012 19.8085C29.3669 19.8238 29.4351 19.8256 29.5015 19.8139C29.568 19.8021 29.6313 19.7769 29.6878 19.74C29.7443 19.703 29.7927 19.655 29.8301 19.5988C29.8675 19.5427 29.8931 19.4795 29.9054 19.4131C29.9177 19.3468 29.9164 19.2786 29.9016 19.2128C29.8869 19.1469 29.8589 19.0847 29.8194 19.03C24.12 10.3492 12.6752 10.5677 7.5146 18.2114Z" fill="white"/>
<path d="M20.7964 21.759C22.0402 22.5968 22.9817 23.8123 23.4822 25.226C23.9826 26.6397 24.0155 28.1768 23.5758 29.6106C23.1362 31.0443 22.2474 32.2989 21.0405 33.189C19.8336 34.0792 18.3726 34.5579 16.8729 34.5546C10.8172 34.5535 6.17349 26.4475 10.4117 20.1699C11.1099 19.1367 12.0047 18.2512 13.0451 17.5639C14.0856 16.8767 15.2512 16.4011 16.4755 16.1644C17.6998 15.9278 18.9587 15.9346 20.1803 16.1846C21.402 16.4346 22.5624 16.9228 23.5953 17.6213C25.1861 18.6942 26.4959 20.1336 27.4143 21.8183C28.3328 23.503 28.833 25.3838 28.8729 27.3021C28.8742 27.3677 28.8885 27.4324 28.9149 27.4925C28.9412 27.5526 28.9791 27.6069 29.0265 27.6523C29.0738 27.6977 29.1297 27.7333 29.1908 27.7572C29.2519 27.781 29.3171 27.7926 29.3827 27.7912C29.4483 27.7898 29.513 27.7756 29.573 27.7492C29.6331 27.7229 29.6874 27.6849 29.7328 27.6376C29.7782 27.5902 29.8139 27.5344 29.8377 27.4733C29.8616 27.4122 29.8731 27.347 29.8718 27.2814C29.7308 20.7415 24.5734 14.9907 18.2871 14.9918C16.9087 14.9901 15.5434 15.26 14.2693 15.7862C12.9952 16.3123 11.8373 17.0844 10.8618 18.0582C9.88619 19.032 9.11209 20.1886 8.58369 21.4617C8.05528 22.7349 7.78294 24.0997 7.78223 25.4781C7.78223 30.7491 11.8762 35.5546 16.8707 35.5535C18.9915 35.5546 21.026 34.7136 22.5269 33.2154C24.0279 31.7171 24.8725 29.6841 24.8751 27.5633C24.8751 23.6716 21.8805 19.9874 18.2827 19.9885C17.1061 19.9894 15.9607 20.3675 15.0148 21.0674C14.0689 21.7672 13.3723 22.7518 13.0272 23.8768C12.6822 25.0017 12.7069 26.2076 13.0977 27.3174C13.4885 28.4273 14.2248 29.3826 15.1986 30.0431C15.8588 30.4865 16.6678 30.6504 17.4486 30.4988C18.2294 30.3473 18.9183 29.8926 19.3647 29.2344C20.251 27.9666 19.9898 26.042 18.556 25.0716C18.4461 24.9973 18.3113 24.9698 18.1811 24.995C18.051 25.0202 17.9362 25.0961 17.862 25.206C17.7878 25.3158 17.7602 25.4507 17.7855 25.5808C17.8107 25.711 17.8865 25.8258 17.9964 25.9C19.6128 26.9929 18.8609 29.5524 16.8729 29.5557C16.4754 29.5552 16.087 29.4365 15.7571 29.2147C15.1473 28.8019 14.6483 28.2457 14.3038 27.5949C13.9592 26.9442 13.7798 26.2188 13.7811 25.4825C13.7844 21.8661 17.8401 19.7612 20.7964 21.759Z" fill="white"/>
<path d="M18.2784 9.99282C9.65873 9.99282 2.78662 17.0125 2.78662 25.4736C2.78662 32.4223 7.43688 38.2725 13.0664 39.9785C13.1932 40.0169 13.33 40.0034 13.4469 39.9409C13.5637 39.8784 13.6509 39.772 13.6893 39.6452C13.7277 39.5184 13.7142 39.3815 13.6517 39.2647C13.5892 39.1478 13.4828 39.0606 13.356 39.0222C8.13851 37.4408 3.78771 31.9818 3.78662 25.4704C3.78662 17.5786 10.1866 10.9895 18.2784 10.9895C21.709 10.9895 25.2128 12.2081 28.1701 14.8529C28.27 14.9341 28.3973 14.9738 28.5256 14.9636C28.6539 14.9535 28.7733 14.8943 28.8591 14.7983C28.9449 14.7024 28.9905 14.5771 28.9863 14.4485C28.9822 14.3198 28.9286 14.1978 28.8368 14.1076C25.7002 11.3032 21.945 9.99173 18.2784 9.99282Z" fill="white"/>
<path d="M0.266522 16.7852C0.324709 16.8156 0.38832 16.8343 0.453715 16.84C0.519111 16.8458 0.585008 16.8387 0.647637 16.819C0.710266 16.7993 0.768398 16.7675 0.818708 16.7253C0.869019 16.6831 0.910519 16.6314 0.940837 16.5732C5.71896 7.41147 16.3299 3.80383 25.3429 7.32186C25.4664 7.36997 25.604 7.36706 25.7253 7.31378C25.8466 7.26049 25.9418 7.16118 25.9899 7.0377C26.038 6.91423 26.0351 6.77669 25.9819 6.65536C25.9286 6.53402 25.8293 6.43883 25.7058 6.39071C16.1867 2.67488 5.05011 6.52841 0.0545008 16.1175C-0.00513545 16.2343 -0.0163214 16.3699 0.0233686 16.4949C0.0630586 16.6199 0.150425 16.7242 0.266522 16.7852Z" fill="white"/>
<path d="M3.00971 33.183C3.01845 33.1316 3.0261 33.1447 3.0261 33.0933V33.0824C3.01583 33.0167 3.00122 32.9517 2.98239 32.8879V32.8769C1.3953 29.5881 0.910054 25.8754 1.59855 22.289C2.28705 18.7027 4.11266 15.4337 6.80482 12.9663C9.49699 10.4989 12.9125 8.96459 16.5451 8.59063C20.1777 8.21667 23.8341 9.02301 26.9725 10.8901C27.0861 10.952 27.2192 10.9675 27.344 10.9333C27.4687 10.8992 27.5754 10.8181 27.6417 10.707C27.708 10.5959 27.7287 10.4635 27.6995 10.3375C27.6703 10.2115 27.5934 10.1017 27.485 10.0311C19.3135 5.15464 8.7168 7.50435 3.37146 15.4092C-0.00885728 20.4158 -0.841641 26.8846 2.0742 33.3043C2.11765 33.4007 2.19095 33.4805 2.28328 33.5321C2.37561 33.5836 2.48207 33.6041 2.58694 33.5905C2.69181 33.5769 2.78952 33.53 2.86565 33.4566C2.94178 33.3832 2.99229 33.2873 3.00971 33.183Z" fill="white"/>
</svg>
